<svg width="103" height="20" viewBox="0 0 103 20" fill="none" xmlns="http://www.w3.org/2000/svg">
<path d="M13.2991 4.78915C8.22405 3.56992 4.67737 6.46724 2.49581 3.2094C2.48928 3.19628 2.48275 3.18972 2.47621 3.17662C2.41743 3.08485 2.49581 2.95375 2.60031 2.97996C7.09408 4.055 7.82563 3.38638 9.71327 3.6158C11.4572 3.82556 13.2991 4.78915 13.2991 4.78915Z" fill="#16191D"/>
<path d="M14.1941 5.60953C9.7264 4.94748 6.55855 8.29708 4.16797 5.72097C4.16144 5.71442 4.15491 5.70131 4.14185 5.69476C4.07653 5.62265 4.12225 5.49155 4.22022 5.4981C8.30251 5.79963 9.26265 5.07858 10.9414 5.00648C12.5089 4.94093 14.1941 5.60953 14.1941 5.60953Z" fill="#16191D"/>
<path d="M15.0239 6.66525C11.1245 6.13431 9.45246 9.64778 6.29115 7.49774C6.28461 7.49119 6.27808 7.48464 6.26502 7.47153C6.19971 7.41253 6.2193 7.24211 6.31074 7.24211C9.76598 7.24866 10.6673 6.44239 12.124 6.26541C14.0965 6.02942 15.0239 6.66525 15.0239 6.66525Z" fill="#16191D"/>
<path d="M16.7801 7.82515C14.7422 8.04146 15.0624 9.68021 12.8285 9.31313C12.5346 9.26724 12.5999 9.05748 12.7306 9.01816C14.6052 8.48064 14.6052 8.12012 15.2779 7.85136C15.918 7.60883 16.7801 7.82515 16.7801 7.82515Z" fill="#16191D"/>
<path d="M15.859 7.31909C12.9198 7.37809 12.1687 9.49536 9.69317 8.80708C9.31433 8.70219 9.44497 8.41377 9.64745 8.38755C12.4822 7.93527 12.6193 7.51574 13.6709 7.26665C14.6572 7.03067 15.859 7.31909 15.859 7.31909Z" fill="#16191D"/>
<path d="M14.1808 4.78323C14.1612 4.816 14.1155 4.82255 14.0829 4.80944C13.4754 4.46203 12.9073 4.05561 12.2541 3.60988C11.6401 3.19691 10.3207 2.63318 7.5774 2.76428C6.27107 2.82983 4.28546 3.09859 2.23452 1.68926C1.73811 1.35495 1.23517 0.784665 0.973906 0.253718C0.947781 0.207826 0.934719 0.148828 0.928187 0.08983C0.921656 0.0308319 0.986968 -0.0150415 1.04577 0.00461854C6.12085 2.04978 7.57087 1.25008 10.7648 1.99079C12.0776 2.29888 13.704 4.21295 14.1744 4.69145C14.2005 4.71113 14.2005 4.75045 14.1808 4.78323Z" fill="#16191D"/>
<path d="M18.5962 15.9918C18.5373 16.1751 18.5503 16.3916 18.4329 16.5489C18.2891 16.7587 17.9365 16.7783 17.7666 16.5882C17.6556 16.49 17.6556 16.3326 17.6163 16.208C17.3617 15.0871 17.1135 13.9661 16.8652 12.8386C16.8392 12.7601 16.8652 12.7076 16.9436 12.6749C17.0678 12.642 17.0808 12.7797 17.1199 12.8585C17.4008 13.6254 17.662 14.3988 17.9495 15.1657C18.0409 15.428 18.348 15.3427 18.5503 15.4084C18.7659 15.5459 18.6353 15.8016 18.5962 15.9918Z" fill="#16191D"/>
<path d="M18.9293 12.8974C18.9555 12.9696 18.9163 13.0547 18.8379 13.0678C18.7923 13.0744 18.753 13.0678 18.74 13.0022C18.5505 12.6221 18.3872 12.2223 18.1912 11.8421C17.9366 11.6257 17.6687 11.4028 17.5121 11.0948C17.2312 10.5966 17.2572 9.94763 17.5708 9.46911C17.5968 9.43633 17.6165 9.39701 17.6427 9.36422C17.6884 9.29869 17.7863 9.3118 17.8124 9.39046C17.832 9.44945 17.845 9.50843 17.8713 9.56088C18.2239 10.6687 18.5637 11.7896 18.9293 12.8974Z" fill="#16191D"/>
<path d="M18.9821 7.62088C18.9691 7.91585 18.8581 8.19116 18.7861 8.47303C18.7795 8.49269 18.7731 8.5058 18.7535 8.51235C18.7078 8.53203 18.6621 8.49924 18.6621 8.45337C18.6685 8.06661 18.8058 7.68643 18.7078 7.30623C18.5642 6.78839 18.2114 6.3361 18.1853 5.78547C18.1721 5.49705 18.244 5.21519 18.3029 4.93332C18.0938 4.49414 17.9958 3.98939 18.1068 3.51089C18.1264 3.45189 18.133 3.45189 18.1657 3.49776C18.3682 3.79275 18.6359 4.08773 18.6359 4.47446C18.6098 5.02509 18.3093 5.57571 18.5119 6.12634C18.6751 6.61796 19.0278 7.07681 18.9821 7.62088Z" fill="#16191D"/>
<path d="M20.7064 5.7209C20.6934 6.44195 20.0663 7.01879 20.1382 7.75296C20.1382 8.03482 20.21 8.32324 20.1773 8.60511C20.1316 8.85419 19.8507 8.89353 19.6484 8.95253C19.5308 9.00497 19.4002 8.86731 19.4328 8.74932C19.4328 7.89717 19.4328 7.03846 19.4328 6.18631C19.4459 5.83234 19.5308 5.45869 19.7724 5.18995C19.9227 5.01296 20.0793 4.83598 20.2426 4.65899C20.2753 4.61965 20.2949 4.57377 20.2885 4.52788C20.2753 4.37057 20.2426 4.23291 20.3145 4.04936C20.4255 3.81994 20.5694 3.68229 20.7194 3.53152C20.7457 3.50531 20.7847 3.51842 20.7913 3.55118C20.8959 4.0166 20.7914 4.52133 20.5758 4.94085C20.6281 5.18995 20.7064 5.45214 20.7064 5.7209Z" fill="#16191D"/>
<path d="M28.9551 3.0845C28.0668 3.33359 27.6553 3.63511 27.3026 3.91698C27.3026 3.91698 28.106 3.63511 29.262 3.51058C32.541 3.15006 32.7303 4.37584 36.4012 2.9534C36.5252 2.93374 36.5579 3.03206 36.5252 3.0845C36.0354 3.93665 35.4932 4.88057 33.4423 4.96578C31.2085 5.05756 30.0459 4.15952 27.9492 4.42828C26.6103 4.5987 25.9179 5.01823 25.5324 5.27388C30.1046 4.3955 29.7258 6.41445 34.2065 5.33943C34.2587 5.32631 34.3176 5.3132 34.3699 5.31975C34.4873 5.33286 34.5332 5.47709 34.4613 5.55575C34.4286 5.59507 34.3829 5.6344 34.3503 5.67372C33.7625 6.30956 33.1418 7.00439 31.0517 6.84708C28.5959 6.66353 28.4392 5.13622 23.7494 6.30301C28.2954 6.28335 28.217 7.77789 31.6397 7.33215C31.7573 7.31904 31.829 7.46326 31.7376 7.54191C31.6853 7.58779 31.6264 7.62712 31.5808 7.66646C31.0649 8.07286 30.3136 8.57104 28.9028 8.28262C25.9636 7.66646 26.336 6.44722 22.5541 7.11584C25.4998 7.1945 25.2974 8.34162 28.3216 8.62349C28.3216 8.62349 28.3216 8.62349 28.328 8.62349C28.4913 8.64315 28.5372 8.85946 28.3999 8.95124C28.2954 9.02335 28.1778 9.07577 28.0668 9.12167C25.8592 9.98037 24.8336 7.20105 22.123 7.82378C24.0629 7.9942 23.9061 8.6497 25.6566 9.12822C25.846 9.18066 25.8265 9.43632 25.6174 9.45598C23.5404 9.66574 23.7233 8.26296 22.4496 8.21052C22.11 8.19741 21.7965 8.38096 21.6266 8.68248C21.1237 9.56085 21.3261 10.3933 21.2934 10.8456C21.411 11.3176 21.5875 11.7765 21.5939 12.2745C21.6005 12.622 21.5679 12.9826 21.4567 13.3168C21.2477 14.0116 21.0388 14.7066 20.8232 15.408C20.7775 15.5521 20.7839 15.7094 20.8362 15.8471C20.9146 16.0569 20.9931 16.2601 21.0257 16.483C21.1041 16.8565 21.0518 17.2433 20.9212 17.6038C20.6469 18.279 20.3724 18.9541 20.0982 19.6359C20.0459 19.7604 20.0068 19.8916 19.9153 19.9964C19.7782 20.0227 19.7912 19.8457 19.8043 19.7604C20.0721 17.2367 20.3268 14.713 20.588 12.1894L20.7971 11.5864C20.3856 11.9403 20.2027 12.4319 19.9349 12.8711C19.9022 12.976 19.7455 12.9956 19.7129 12.8777C19.7389 12.4385 19.7977 11.9994 19.8109 11.5601C19.8499 11.1144 19.8435 10.6621 19.9938 10.236C20.1635 9.80339 20.49 9.45598 20.7449 9.08235C21.1628 8.54483 21.4763 7.9352 21.6919 7.29281C21.8225 6.89952 22.097 6.55211 22.4496 6.33579C23.671 5.5623 24.3829 4.89368 25.539 4.01531C26.6037 3.20904 27.4267 2.57975 27.8971 2.38967C30.0459 1.50473 34.3633 2.45522 38.0602 0.0429775C38.1516 -0.00946721 38.2692 0.0954046 38.1974 0.246168C37.8513 1.12455 37.4398 1.68828 36.4599 2.17335C33.6383 3.56958 30.3985 2.67809 28.9551 3.0845Z" fill="#16191D"/>
<path d="M20.3863 4.6003C20.3863 4.6003 20.1445 4.17422 19.5567 4.12178C19.1125 4.08246 18.9102 4.23322 18.9102 4.23322C18.9102 4.23322 19.4457 4.0759 19.8638 4.44953C20.2817 4.82316 20.0531 5.14437 20.0531 5.14437C20.0531 5.14437 20.5103 4.87561 20.3863 4.6003Z" fill="#16191D"/>
<path d="M20.3598 4.54147C20.3598 4.54147 20.0528 4.21373 19.4258 4.1875C19.4258 4.1875 19.798 4.27927 19.8439 4.48247C19.9222 4.86923 19.5826 5.38707 19.5173 5.63617C19.465 5.85903 20.3598 4.54147 20.3598 4.54147Z" fill="#16191D"/>
<path d="M75.67 13.5049C74.8199 13.6458 73.9592 13.7112 73.0979 13.7003C71.4824 13.7003 69.75 12.6319 69.75 9.64889V7.90302C69.75 4.74004 71.5661 3.84044 73.2124 3.84044C74.0353 3.83307 74.8572 3.89399 75.67 4.02258C75.7846 4.03592 75.8904 4.087 75.8904 4.21805V4.86885C75.8904 4.95992 75.8397 4.99992 75.7228 4.99992H75.6722C74.9095 4.93549 74.3145 4.90883 73.2146 4.90883C72.0134 4.90883 70.9269 5.55965 70.9269 7.90302V9.64889C70.9269 11.7991 71.8967 12.6453 73.1 12.6453C73.887 12.6453 74.4225 12.5943 74.7266 12.5675V8.8426C74.7239 8.80973 74.7278 8.77662 74.7383 8.74535C74.7487 8.71409 74.7655 8.68528 74.7872 8.66075C74.8092 8.63619 74.8358 8.61641 74.8656 8.60262C74.8954 8.58882 74.9275 8.58129 74.9602 8.5805H75.659C75.7253 8.58393 75.788 8.61312 75.8335 8.66198C75.8792 8.71082 75.9041 8.77555 75.9036 8.8426V13.2183C75.9056 13.2866 75.8829 13.3532 75.8401 13.4058C75.7971 13.4585 75.7366 13.4937 75.67 13.5049Z" fill="#B8BBBD"/>
<path d="M80.7215 7.35616C80.1198 7.33211 79.5174 7.37607 78.9253 7.48721V13.349C78.9285 13.4125 78.9074 13.4749 78.8664 13.5231C78.8253 13.5715 78.7677 13.6022 78.7049 13.6088H78.0327C77.9675 13.6054 77.9065 13.5761 77.8626 13.5275C77.8189 13.4788 77.7961 13.4147 77.7991 13.349V7.01853C77.8028 6.95312 77.8262 6.89039 77.8658 6.8385C77.9056 6.78661 77.9599 6.74795 78.0216 6.72756C78.7577 6.40105 79.6505 6.36328 80.7215 6.36328C80.8912 6.36328 80.9949 6.3766 80.9949 6.55874V7.15626C80.9949 7.29175 80.9685 7.35616 80.7215 7.35616Z" fill="#B8BBBD"/>
<path d="M85.0107 13.7009C83.1109 13.7009 82.1455 12.4372 82.1455 10.5225V9.53179C82.1455 7.61712 83.1152 6.35547 85.0107 6.35547C86.9061 6.35547 87.876 7.61712 87.876 9.53179V10.5225C87.876 12.4372 86.8995 13.7009 85.0107 13.7009ZM86.7562 9.53179C86.7562 8.19907 86.2252 7.35724 85.0107 7.35724C83.7963 7.35724 83.2783 8.19241 83.2783 9.53179V10.5225C83.2783 11.8551 83.7963 12.6992 85.0107 12.6992C86.2252 12.6992 86.7562 11.864 86.7562 10.5225V9.53179Z" fill="#B8BBBD"/>
<path d="M92.187 13.6997H92.0637C91.182 13.6997 89.4013 13.2044 89.4013 10.639V6.7052C89.3984 6.67206 89.4025 6.6387 89.4132 6.60725C89.4239 6.57579 89.4411 6.54694 89.4636 6.52249C89.4859 6.49806 89.513 6.47858 89.5433 6.4653C89.5737 6.45201 89.6063 6.44521 89.6391 6.44531H90.3115C90.344 6.44581 90.3763 6.45306 90.4059 6.46662C90.4357 6.48017 90.4623 6.49974 90.4843 6.52411C90.5062 6.54849 90.5228 6.57715 90.5333 6.60829C90.5439 6.63945 90.5478 6.67243 90.5451 6.7052V10.639C90.5451 12.1939 91.2063 12.6979 92.0703 12.6979H92.187C93.0511 12.6979 93.7122 12.2026 93.7122 10.639V6.7052C93.7096 6.67261 93.7135 6.63981 93.7238 6.60881C93.7342 6.57781 93.7506 6.54926 93.7724 6.52492C93.794 6.50058 93.8204 6.48096 93.8498 6.46728C93.8793 6.45358 93.9112 6.44612 93.9437 6.44531H94.6159C94.6485 6.44581 94.6807 6.45306 94.7105 6.46662C94.7401 6.48017 94.7669 6.49974 94.7888 6.52411C94.8106 6.54849 94.8274 6.57715 94.8379 6.60829C94.8482 6.63945 94.8523 6.67243 94.8495 6.7052V10.639C94.8495 13.2044 93.0643 13.6997 92.187 13.6997Z" fill="#B8BBBD"/>
<path d="M99.2551 13.7012C98.7481 13.6944 98.2426 13.6469 97.7431 13.559V15.9158C97.7431 15.9483 97.7368 15.9802 97.7245 16.0102C97.7122 16.04 97.6942 16.0672 97.6715 16.0902C97.6487 16.1131 97.6217 16.1313 97.5921 16.1436C97.5623 16.1559 97.5306 16.1624 97.4984 16.1624H96.8373C96.8057 16.162 96.7745 16.1554 96.7456 16.1429C96.7167 16.1302 96.6906 16.1118 96.6688 16.0888C96.6469 16.0659 96.6299 16.0386 96.6189 16.009C96.6076 15.9793 96.6024 15.9475 96.6037 15.9158V6.95101C96.6037 6.78222 96.6433 6.70447 96.8748 6.65338C97.6537 6.46305 98.4515 6.36246 99.2529 6.35352C101.179 6.35352 102.072 7.61515 102.072 9.56982V10.505C102.074 12.5552 101.142 13.7012 99.2551 13.7012ZM100.934 9.57204C100.934 8.20378 100.536 7.31973 99.2551 7.31973C98.7485 7.3227 98.2429 7.36577 97.7431 7.44857V12.6062C98.2431 12.6889 98.7485 12.7328 99.2551 12.7373C100.522 12.7373 100.934 11.9043 100.934 10.5161V9.57204Z" fill="#B8BBBD"/>
<path d="M53.1735 13.5947C52.5916 13.6858 50.9693 13.8013 50.4074 13.8013C47.9125 13.8013 46.2197 13.1705 46.2197 10.012V4.25463C46.2203 4.22128 46.2274 4.18838 46.2408 4.15785C46.2542 4.12733 46.2733 4.09978 46.2974 4.07683C46.3213 4.05387 46.3496 4.03596 46.3805 4.02416C46.4116 4.01235 46.4446 4.00689 46.4776 4.00807H48.5847C48.6177 4.00659 48.6509 4.01184 48.682 4.02353C48.713 4.03523 48.7416 4.0531 48.7656 4.07612C48.7896 4.09914 48.8088 4.12681 48.822 4.15747C48.8352 4.18815 48.8422 4.22119 48.8426 4.25463V10.012C48.8426 11.1848 49.2305 11.5668 50.1495 11.5668C50.5644 11.5655 50.9788 11.5388 51.3904 11.4869V4.25463C51.3906 4.22119 51.3976 4.18815 51.4108 4.15747C51.424 4.12681 51.4433 4.09914 51.4674 4.07612C51.4914 4.0531 51.5198 4.03523 51.5509 4.02353C51.5819 4.01184 51.6151 4.00659 51.6483 4.00807H53.742C53.8104 4.00503 53.8769 4.02921 53.9278 4.07533C53.9785 4.12147 54.0092 4.18588 54.0131 4.25463V12.5908C54.0131 13.3194 53.7927 13.5037 53.1735 13.5947Z" fill="#16191D"/>
<path d="M58.0712 13.6838H55.9508C55.883 13.6822 55.8186 13.6538 55.7711 13.6047C55.7239 13.5558 55.6973 13.4901 55.6973 13.4219V4.25266C55.698 4.21969 55.7049 4.18718 55.718 4.15694C55.731 4.12671 55.7499 4.09936 55.7735 4.07646C55.797 4.05357 55.8247 4.03557 55.8552 4.0235C55.8855 4.01143 55.9182 4.00552 55.9508 4.00611H58.0712C58.1042 4.00461 58.1374 4.00986 58.1684 4.02156C58.1995 4.03325 58.228 4.05114 58.2519 4.07416C58.276 4.09716 58.2953 4.12484 58.3085 4.15552C58.3217 4.18618 58.3287 4.21923 58.329 4.25266V13.4219C58.3292 13.4562 58.3228 13.4901 58.3099 13.5219C58.2971 13.5537 58.2782 13.5826 58.2542 13.607C58.2302 13.6313 58.2018 13.6506 58.1702 13.6638C58.1388 13.677 58.1051 13.6838 58.0712 13.6838Z" fill="#16191D"/>
<path d="M65.5663 13.5659C64.9783 13.7348 64.3682 13.8136 63.7568 13.7991C61.3787 13.7991 59.7764 12.4976 59.7764 9.51447V8.18174C59.7764 5.18977 61.3787 3.88815 63.7568 3.88815C64.3682 3.87492 64.978 3.95352 65.5663 4.12137C65.7735 4.18801 65.8507 4.22576 65.8507 4.40792V6.07604C65.8507 6.24484 65.7735 6.32259 65.6304 6.32259H65.5906C64.9899 6.25186 64.3859 6.21331 63.7811 6.20709C63.0825 6.20709 62.4586 6.51806 62.4586 8.17285V9.50557C62.4586 11.147 63.0802 11.4736 63.7811 11.4736C64.3859 11.4667 64.9899 11.4274 65.5906 11.3558H65.6148C65.7692 11.3558 65.8352 11.4336 65.8352 11.6024V13.2793C65.8507 13.4482 65.7735 13.5015 65.5663 13.5659Z" fill="#16191D"/>
</svg>
