<svg width="33" height="29" viewBox="0 0 33 29" fill="none" xmlns="http://www.w3.org/2000/svg">
<path fill-rule="evenodd" clip-rule="evenodd" d="M28.5219 15.3059L16.0219 27.6859L3.5219 15.3059M3.5219 15.3059C1.27406 13.1185 0.444779 9.85431 1.37603 6.8593C2.30728 3.86428 4.84132 1.64582 7.93317 1.11874C11.025 0.591667 14.1509 1.84526 16.0219 4.36258C17.9007 1.86389 21.0199 0.626932 24.1006 1.15894C27.1812 1.69094 29.7049 3.9024 30.6369 6.88649C31.5688 9.87058 30.7522 13.1253 28.5219 15.3159" fill="#FF0000"/>
<path d="M29.2256 16.0164C29.618 15.6278 29.621 14.9946 29.2324 14.6022C28.8438 14.2098 28.2106 14.2068 27.8182 14.5954L29.2256 16.0164ZM16.0219 27.6859L15.3182 28.3964C15.7079 28.7824 16.3359 28.7824 16.7256 28.3964L16.0219 27.6859ZM4.22558 14.5954C3.83318 14.2068 3.20002 14.2098 2.81139 14.6022C2.42275 14.9946 2.4258 15.6278 2.81821 16.0164L4.22558 14.5954ZM2.8245 16.0226C3.22031 16.4078 3.85341 16.3991 4.23858 16.0033C4.62374 15.6075 4.61511 14.9744 4.2193 14.5892L2.8245 16.0226ZM16.0219 4.36258L15.2193 4.95909C15.4074 5.21216 15.7038 5.36169 16.0191 5.36257C16.3344 5.36345 16.6317 5.21557 16.8212 4.96355L16.0219 4.36258ZM27.8212 14.6025C27.4272 14.9895 27.4215 15.6226 27.8085 16.0166C28.1955 16.4107 28.8286 16.4163 29.2226 16.0293L27.8212 14.6025ZM27.8182 14.5954L15.3182 26.9754L16.7256 28.3964L29.2256 16.0164L27.8182 14.5954ZM16.7256 26.9754L4.22558 14.5954L2.81821 16.0164L15.3182 28.3964L16.7256 26.9754ZM4.2193 14.5892C2.2412 12.6643 1.51143 9.79182 2.33093 7.15621L0.421125 6.56238C-0.621876 9.9168 0.306918 13.5727 2.8245 16.0226L4.2193 14.5892ZM2.33093 7.15621C3.15044 4.5206 5.38039 2.56835 8.10121 2.10452L7.76512 0.132964C4.30225 0.723288 1.46413 3.20797 0.421125 6.56238L2.33093 7.15621ZM8.10121 2.10452C10.822 1.64069 13.5729 2.74386 15.2193 4.95909L16.8245 3.76606C14.729 0.946666 11.228 -0.457361 7.76512 0.132964L8.10121 2.10452ZM16.8212 4.96355C18.4745 2.76471 21.2194 1.67619 23.9304 2.14435L24.2707 0.173523C20.8204 -0.422323 17.3269 0.963066 15.2226 3.7616L16.8212 4.96355ZM23.9304 2.14435C26.6414 2.61252 28.8622 4.5586 29.6824 7.1846L31.5914 6.58838C30.5476 3.24621 27.7211 0.769369 24.2707 0.173523L23.9304 2.14435ZM29.6824 7.1846C30.5025 9.8106 29.7838 12.6747 27.8212 14.6025L29.2226 16.0293C31.7206 13.5758 32.6352 9.93056 31.5914 6.58838L29.6824 7.1846Z" fill="#FF0000"/>
</svg>
