<svg width="33" height="29" fill="none" xmlns="http://www.w3.org/2000/svg"><path d="M8.178.085C3.79.683.516 4.059.05 8.464c-.249 2.355.544 4.919 2.105 6.806.507.613 13.166 13.12 13.422 13.261a.967.967 0 0 0 .831.049c.202-.084 12.91-12.633 13.468-13.298 1.561-1.863 2.352-4.488 2.077-6.892-.424-3.697-2.902-6.741-6.427-7.893-1.989-.65-4.316-.571-6.281.214-1.056.421-2.281 1.197-2.908 1.842-.135.139-.272.252-.305.252-.033 0-.146-.088-.25-.197-.809-.839-2.343-1.751-3.627-2.157C10.843.037 9.463-.09 8.178.085" fill="red" fill-rule="evenodd"/></svg>